<?xml version="1.0" standalone="no"?><!DOCTYPE svg PUBLIC "-//W3C//DTD SVG 1.1//EN" "http://www.w3.org/Graphics/SVG/1.1/DTD/svg11.dtd"><svg t="1581567536282" class="icon" viewBox="0 0 1024 1024" version="1.1" xmlns="http://www.w3.org/2000/svg" p-id="1933" xmlns:xlink="http://www.w3.org/1999/xlink" width="200" height="200"><defs><style type="text/css"></style></defs><path d="M805.887693 823.508686h87.807967a29.482989 29.482989 0 0 0 27.775989-12.500995 25.89899 25.89899 0 0 0 0-29.013989 29.482989 29.482989 0 0 0-27.733989-12.500995h-87.892967V681.59974a29.482989 29.482989 0 0 0-12.500995-27.733989 25.89899 25.89899 0 0 0-29.013989 0 29.482989 29.482989 0 0 0-12.499995 27.733989v87.892967h-87.892967a29.482989 29.482989 0 0 0-27.733989 12.499995 25.89899 25.89899 0 0 0 0 29.014989 29.482989 29.482989 0 0 0 27.733989 12.499995h87.892967v87.849967a29.482989 29.482989 0 0 0 12.499995 27.734989 25.89899 25.89899 0 0 0 29.014989 0 29.482989 29.482989 0 0 0 12.543995-27.732989v-87.850967z m-345.343868-51.54098l-0.768-0.811c0.128 93.951964 43.263984 182.442931 116.479956 238.932909A1166.719556 1166.719556 0 0 1 404.223846 1023.99961C212.819919 1023.99961 0 1004.073618 0 910.505653v-66.857974c0-87.210967 128.554951-166.826936 269.098898-193.919926 23.892991-12.671995 36.948986-39.765985 32.255987-66.901975a273.236896 273.236896 0 0 1-53.589979-113.492957 61.866976 61.866976 0 0 1-25.257991-19.071992 174.889933 174.889933 0 0 1-27.179989-101.545962c3.115999-33.834987 12.799995-23.082991 12.799995-28.287989A285.012891 285.012891 0 0 1 229.459913 90.282966C302.164885-42.239984 457.469826-3.284999 481.959816 46.506982c147.926944-28.671989 141.739946 208.639921 121.515954 271.956897 0 0 13.609995 2.389999 10.495996 58.495977-3.839999 37.801986-21.929992 72.532972-50.474981 96.767964a314.53888 314.53888 0 0 1-52.05298 107.519959 50.431981 50.431981 0 0 0-6.186997 31.444988 294.484888 294.484888 0 0 0-44.671983 159.274939zM785.492701 1023.99961a238.932909 238.932909 0 1 1-0.853-477.866818 238.932909 238.932909 0 0 1 0.853 477.866818z" p-id="1934"></path></svg>