<?xml version="1.0" standalone="no"?><!DOCTYPE svg PUBLIC "-//W3C//DTD SVG 1.1//EN" "http://www.w3.org/Graphics/SVG/1.1/DTD/svg11.dtd"><svg t="1581490473906" class="icon" viewBox="0 0 1024 1024" version="1.1" xmlns="http://www.w3.org/2000/svg" p-id="12570" xmlns:xlink="http://www.w3.org/1999/xlink" width="200" height="200"><defs><style type="text/css"></style></defs><path d="M392.896 663.488v58.88c0 81.28 67.2 147.328 150.528 147.328 83.328 0 150.592-66.112 150.592-147.328V334.08a32.96 32.96 0 1 1 65.92 0v388.224c0 117.888-97.088 213.184-216.512 213.184-119.36 0-216.448-95.36-216.448-213.184V275.2c0-94.464 73.344-171.648 164.736-171.648 91.328 0 164.672 77.184 164.672 171.648v419.2c0 62.464-51.328 112.896-114.368 112.896a113.664 113.664 0 0 1-114.368-112.896V301.184a32.96 32.96 0 1 1 65.92 0v393.216c0 25.856 21.504 47.04 48.448 47.04 26.88 0 48.512-21.184 48.512-47.04V275.2c0-58.816-44.672-105.792-98.816-105.792-54.208 0-98.816 46.976-98.816 105.792v388.288z" p-id="12571"></path></svg>