<?xml version="1.0" standalone="no"?><!DOCTYPE svg PUBLIC "-//W3C//DTD SVG 1.1//EN" "http://www.w3.org/Graphics/SVG/1.1/DTD/svg11.dtd"><svg t="1582074728615" class="icon" viewBox="0 0 1024 1024" version="1.1" xmlns="http://www.w3.org/2000/svg" p-id="3390" xmlns:xlink="http://www.w3.org/1999/xlink" width="200" height="200"><defs><style type="text/css"></style></defs><path d="M250.368 366.08h325.12c16.384 0 27.136-10.752 27.136-27.136 0-16.384-10.752-27.136-27.136-27.136H250.368c-16.384 0-27.136 10.752-27.136 27.136 0 16.384 10.24 27.136 27.136 27.136z m-6.144 162.816h254.464c12.288 0 21.504-10.752 21.504-27.136 0-16.384-8.192-27.136-21.504-27.136H244.224c-12.288 0-21.504 10.752-21.504 27.136 0.512 16.384 8.704 27.136 21.504 27.136z m6.144 162.816h162.816c16.384 0 27.136-10.752 27.136-27.136 0-16.384-10.752-27.136-27.136-27.136H250.368c-16.384 0-27.136 10.752-27.136 27.136 0 16.384 10.24 27.136 27.136 27.136z" p-id="3391"></path><path d="M808.96 373.248V166.4c0-29.696-17.408-45.568-43.52-45.568h-604.16c-26.112 0-43.52 15.36-43.52 45.568v696.32c0 29.696 17.408 49.664 43.52 49.664h282.112v-49.664H191.488c-11.776 0-22.016-9.728-22.016-22.016V192.512c0-11.776 9.728-22.016 22.016-22.016h547.84c11.776 0 22.016 9.728 22.016 22.016V373.76l47.616-0.512zM829.952 914.432h-258.56c-29.184 0-40.96-11.264-40.96-34.816v-78.848c0-0.512 6.144-2.56 6.656-3.072l0.512-13.824h66.048l1.024 18.944v32.256H798.72v-32.256l1.024-18.944h66.048l10.752 13.824c0 0.512-3.584 1.536-3.584 2.56v79.36c-1.536 30.72-15.36 34.816-43.008 34.816z m-269.312-111.616v71.168c0 9.728 7.68 10.752 16.384 10.752h248.32c9.728 0 16.384-1.024 16.384-10.752v-71.168h-14.848V865.28h-252.928v-62.464h-13.312z" p-id="3392"></path><path d="M900.608 786.432c0-1.024-0.512-2.56-0.512-4.096-4.096-23.04-18.944-43.008-40.448-52.224l-69.12-32.256c-4.608-2.56-10.24-6.144-13.824-10.752l-0.512-1.024c-2.56-3.072-4.608-6.656-6.144-10.24-2.56-4.608-3.072-10.24-3.072-15.36v-10.752c0-10.752 4.608-19.968 13.312-29.696 19.456-23.552 33.792-49.664 33.792-80.384s-13.312-60.416-35.84-81.92c-17.92-16.384-39.936-26.624-63.488-29.184h-2.56c-0.512 0-1.536 0-3.072-0.512H693.248c-0.512 0-1.536 0-3.072 0.512h-2.56c-23.552 2.56-46.592 13.312-63.488 29.184-22.528 21.504-35.84 51.2-35.84 81.92 0 30.208 13.824 57.856 33.792 80.384 7.68 9.728 13.312 18.944 13.312 29.696v10.752c0 5.12-1.024 10.752-3.072 15.36-1.536 3.584-3.584 7.168-6.144 10.24l-0.512 1.024c-3.584 4.096-8.192 7.68-13.824 10.752l-69.12 32.256c-20.992 10.24-36.352 29.184-40.448 52.224-0.512 1.024-0.512 2.56-0.512 4.096v3.072c0.512 10.24 8.704 17.92 18.432 17.92h361.984c10.24 0 17.92-7.68 18.432-17.92v-1.024-2.048z m-244.224-117.248c0.512-3.072 0.512-6.144 0.512-8.192V650.24c0-16.384-6.656-30.208-18.944-44.544-17.92-21.504-30.208-46.592-28.16-74.24 3.584-44.032 39.936-79.872 84.48-82.432h12.8c44.032 3.072 80.384 38.4 84.48 82.432 2.56 28.16-9.728 52.736-28.16 74.24-12.288 14.848-18.944 28.16-18.944 44.544v10.752c0 3.072 0.512 6.144 0.512 8.192 3.072 20.992 16.384 39.424 34.816 47.616l37.888 17.92 30.72 14.848c14.848 7.168 25.088 20.992 28.16 36.352h-355.328c3.072-15.872 13.824-29.184 28.16-36.352l28.672-13.824 2.56-1.024 37.888-17.92c21.504-8.704 34.816-26.624 37.888-47.616z" p-id="3393"></path><path d="M882.176 816.64h-361.984c-14.848 0-29.184-13.312-29.696-28.16v-1.024-3.072c0-1.024 0.512-3.072 0.512-4.608 4.608-26.112 23.04-46.592 46.592-57.344l69.12-32.256c3.584-1.536 7.68-4.608 10.752-7.68l0.512-1.024c2.56-2.56 3.584-4.608 4.608-7.68 1.536-3.584 2.56-7.68 2.56-11.776v-10.752c0-7.68-3.584-15.36-10.752-23.552-24.576-27.136-36.352-56.32-36.352-86.528 0-33.28 14.336-66.048 38.4-89.088 18.944-17.92 43.52-29.184 69.12-32.256h1.024c0.512 0 1.024 0 1.536-0.512h18.944c0.512 0 2.56 0 3.584 0.512h0.512l2.56 0.512c26.112 3.072 49.664 14.336 69.12 32.256 25.088 23.04 38.4 55.296 38.4 89.088 0 29.184-11.776 56.832-36.352 86.528-7.68 8.704-10.752 15.872-10.752 23.552v10.752c0 4.096 0.512 7.68 2.56 11.776 1.024 3.072 3.072 5.12 4.608 7.68l0.512 0.512c3.072 3.584 6.656 6.144 10.752 7.68l69.12 32.256c23.552 11.264 40.448 32.256 45.568 57.344 0.512 1.536 0.512 4.096 0.512 6.144V790.528c2.048 14.336-10.752 26.112-25.6 26.112z m-368.64-21.504c1.536 1.536 4.096 3.072 6.656 3.072h361.984c2.56 0 4.608-0.512 6.656-3.072h-375.296z m-2.56-5.632c0 1.536 0.512 3.584 1.536 4.608l1.536-9.728c3.584-18.944 15.872-34.816 33.28-43.52l69.12-32.256c16.384-7.68 28.16-23.04 30.208-40.448v-0.512c0.512-2.56 0.512-4.608 0.512-7.168v-10.24c0-13.824-4.608-24.576-16.384-38.4-22.016-26.112-32.256-53.248-30.208-80.896 4.096-48.64 44.032-87.552 92.672-91.136h13.824c48.64 3.584 89.088 41.984 93.184 91.136 2.56 28.16-7.68 54.784-30.208 80.896-11.776 13.824-16.384 24.576-16.384 38.4v10.752c0 2.56 0 4.608 0.512 7.168v0.512c2.56 17.92 13.824 33.28 30.208 40.448l43.52 19.968 26.112 11.776c17.92 8.192 29.696 24.576 33.28 43.52l1.536 9.728c0.512-1.024 1.024-3.072 1.536-4.608v-1.536c0-1.024-0.512-2.56-0.512-3.584-3.584-19.968-16.384-36.864-34.816-45.568l-69.632-32.256c-6.656-3.072-11.776-7.68-16.384-12.288l-0.512-0.512-0.512-1.024c-3.072-3.584-5.12-7.68-7.168-11.776-2.56-6.144-3.584-12.288-3.584-18.944V650.24c0-15.36 7.68-27.136 14.848-35.84 22.016-26.112 32.256-49.664 32.256-74.752 0-28.672-11.776-55.808-32.768-75.264-15.872-14.848-36.352-24.576-58.368-26.624H689.664c-22.016 2.56-41.984 11.776-58.368 27.136-20.992 19.456-32.768 47.104-32.768 75.264 0 25.6 10.752 50.688 32.256 74.752 10.24 11.264 14.848 23.04 14.848 36.352v10.752c0 6.656-1.024 13.312-3.584 18.944-1.536 4.608-4.096 8.704-7.168 12.288l-1.024 1.536c-4.608 5.12-10.752 9.728-16.384 13.312l-69.12 32.256c-18.432 8.704-31.744 25.6-34.816 45.568-2.56 0.512-2.56 1.536-2.56 3.584l0.512 0.512-0.512-0.512z m25.6-13.312h329.216c-4.096-8.192-10.752-14.848-18.944-18.944l-36.352-17.408-32.768-14.848c-22.016-10.24-37.376-30.72-40.448-54.784-0.512-3.584-0.512-6.656-0.512-10.24v-10.752c0-18.432 6.656-33.28 20.992-50.688 18.944-22.016 28.16-44.544 25.6-67.072-3.584-39.424-36.352-71.168-75.264-74.24h-10.752c-39.424 3.072-71.68 34.816-75.264 74.24-2.56 22.016 6.656 44.544 25.6 67.072 14.848 17.408 20.992 32.768 20.992 50.688v10.752c0 3.584-0.512 6.656-0.512 10.24-3.584 23.552-18.432 44.544-40.448 54.784l-69.12 32.256c-11.776 4.608-18.432 11.264-22.016 18.944z" p-id="3394"></path><path d="M882.176 810.496h-361.984c-6.656 0-11.776-2.56-16.384-7.168-3.584-3.584-4.608-8.192-5.12-13.824v-1.024-2.56c0-1.024 0.512-2.56 0.512-4.096 4.096-23.552 19.456-44.544 41.984-54.784l69.12-32.256c4.608-2.56 9.728-5.12 12.288-9.728l0.512-1.024c2.56-3.072 4.096-6.656 5.12-9.728 1.536-4.608 3.072-9.728 3.072-14.336V650.24c0-9.728-3.584-18.432-11.776-28.16-23.04-26.112-34.816-54.272-34.816-82.432 0-32.256 13.824-62.464 36.352-84.48 17.92-16.384 40.96-28.16 65.536-30.208h2.56c0.512 0 1.536 0 3.072-0.512H708.096c0.512 0 2.56 0 3.072 0.512h2.56c24.576 3.072 47.616 13.824 65.536 30.208 23.552 22.016 36.352 52.224 36.352 84.48 0 28.16-10.752 54.272-34.816 82.432-8.192 10.24-11.776 18.432-11.776 28.16v10.752c0 4.608 0.512 9.728 3.072 14.336 1.024 3.584 3.584 6.656 5.12 9.728l0.512 1.024c3.584 4.096 7.68 7.168 12.288 9.728l69.12 32.256c22.016 10.752 37.376 30.208 41.984 54.784 0.512 1.536 0.512 3.072 0.512 4.096v3.584c0 4.608-2.56 9.728-5.12 13.824-2.56 3.584-8.192 6.144-14.336 6.144z m-181.248-380.928h-8.192c-1.536 0-1.536 0-2.56 0.512h-2.048c-23.04 2.56-44.544 12.288-61.952 28.672-22.016 20.992-34.816 49.152-34.816 80.384 0 27.136 11.264 53.248 33.28 78.336 9.728 10.752 13.824 20.992 13.824 32.256v10.752c0 6.144-1.024 11.264-3.584 16.384-1.536 3.584-3.584 7.68-6.656 10.752l-0.512 1.024c-4.096 4.608-9.728 8.192-14.848 11.264l-69.12 32.256c-19.968 9.728-34.304 28.16-38.4 50.688-0.512 1.024-0.512 2.56-0.512 3.584v2.048c0.512 8.192 7.168 14.848 15.36 14.848h361.984c4.608 0 8.704-1.536 11.264-4.608 2.56-2.56 3.584-6.656 3.584-9.728v-0.512-1.536c0-1.024-0.512-2.56-0.512-3.584-3.584-22.016-18.432-40.448-38.4-50.688l-69.632-32.256c-5.12-2.56-10.752-6.656-14.848-11.264l-0.512-1.024c-2.56-3.584-4.608-7.168-6.656-10.752-2.56-5.12-3.584-10.752-3.584-16.384V650.24c0-10.752 4.096-20.992 13.824-32.256 22.528-28.16 33.28-52.224 33.28-78.848 0-30.208-12.288-58.88-34.816-80.384-17.408-15.872-38.4-26.112-61.952-28.672h-2.048c-0.512 0-1.536 0-2.56-0.512h-7.68z m181.76 359.936h-362.496l0.512-3.584c3.584-16.384 14.336-31.744 29.696-38.4l28.672-13.824 2.56-1.024 37.888-17.92c18.432-8.192 30.72-25.6 33.28-45.568 0.512-2.56 0.512-5.12 0.512-7.68V650.24c0-14.848-5.12-28.16-17.92-41.984-21.504-25.088-30.72-50.688-28.672-76.288 3.584-45.568 41.472-81.92 87.552-85.504h14.336c45.568 3.584 82.944 39.936 87.552 85.504 2.56 26.112-7.68 51.712-28.672 76.288-12.288 14.848-17.92 26.624-17.92 41.984v10.752c0 2.56 0.512 5.12 0.512 7.68 2.56 19.968 15.36 37.376 33.28 45.568l40.96 18.944 28.672 13.824c15.36 7.68 26.624 22.016 29.696 38.4v4.096z m-355.328-6.656h347.648c-3.584-13.824-13.312-25.088-25.6-30.208l-33.792-15.872-34.816-16.384c-19.968-9.728-34.304-28.672-37.376-50.688-0.512-3.072-0.512-6.144-0.512-9.728v-10.752c0-17.408 5.12-30.208 18.944-46.592 19.968-23.04 29.184-47.616 27.136-71.68-3.584-43.008-38.4-76.8-81.408-79.872h-13.312c-43.008 3.072-77.824 37.376-81.408 79.872-2.56 23.552 7.168 47.616 27.136 71.68 13.824 15.872 18.944 30.208 18.944 46.592v10.752c0 3.072-0.512 6.144-0.512 9.728-3.072 22.016-17.408 40.96-37.376 50.688l-37.888 17.92-2.56 1.024-28.672 13.824c-11.776 4.608-20.48 15.872-24.576 29.696z" p-id="3395"></path></svg>