<?xml version="1.0" standalone="no"?><!DOCTYPE svg PUBLIC "-//W3C//DTD SVG 1.1//EN" "http://www.w3.org/Graphics/SVG/1.1/DTD/svg11.dtd"><svg t="1582074470684" class="icon" viewBox="0 0 1024 1024" version="1.1" xmlns="http://www.w3.org/2000/svg" p-id="1975" xmlns:xlink="http://www.w3.org/1999/xlink" width="200" height="200"><defs><style type="text/css"></style></defs><path d="M242 694a24 24 0 0 1 0-48h180a24 24 0 0 1 0 48h-180zM722 694a24 24 0 0 1 0-48h60a24 24 0 0 1 0 48h-60zM962 406a24 24 0 0 1 0 48H62a24 24 0 0 1 0-48h900z" p-id="1976"></path><path d="M902 826a36.016 36.016 0 0 0 36-36v-540a36.016 36.016 0 0 0-36-36H122a36.016 36.016 0 0 0-36 36v540a36.016 36.016 0 0 0 36 36h780z m0 48H122a84.016 84.016 0 0 1-84-84v-540a84.016 84.016 0 0 1 84-84h780a84.016 84.016 0 0 1 84 84v540a84.016 84.016 0 0 1-84 84z" p-id="1977"></path></svg>