<?xml version="1.0" standalone="no"?><!DOCTYPE svg PUBLIC "-//W3C//DTD SVG 1.1//EN" "http://www.w3.org/Graphics/SVG/1.1/DTD/svg11.dtd"><svg t="1581666150436" class="icon" viewBox="0 0 1024 1024" version="1.1" xmlns="http://www.w3.org/2000/svg" p-id="2669" xmlns:xlink="http://www.w3.org/1999/xlink" width="200" height="200"><defs><style type="text/css"></style></defs><path d="M512 802.133333c0-161.962667 151.005867-291.191467 320-247.569066a17.066667 17.066667 0 0 0 21.333333-16.520534V51.2c0-28.228267-22.971733-51.2-51.2-51.2H750.933333v153.6c0 28.228267-22.971733 51.2-51.2 51.2S648.533333 181.828267 648.533333 153.6c0-22.2208 14.301867-40.994133 34.133334-48.059733V153.6a17.066667 17.066667 0 0 0 34.133333 0V0h-136.533333v153.6c0 28.228267-22.971733 51.2-51.2 51.2S477.866667 181.828267 477.866667 153.6c0-22.2208 14.301867-40.994133 34.133333-48.059733V153.6a17.066667 17.066667 0 0 0 34.133333 0V0h-136.533333v153.6c0 28.228267-22.971733 51.2-51.2 51.2S307.2 181.828267 307.2 153.6c0-22.2208 14.301867-40.994133 34.133333-48.059733V153.6a17.066667 17.066667 0 0 0 34.133334 0V0H238.933333v153.6C238.933333 181.828267 215.9616 204.8 187.733333 204.8S136.533333 181.828267 136.533333 153.6c0-22.2208 14.301867-40.994133 34.133334-48.059733V153.6a17.066667 17.066667 0 0 0 34.133333 0V0H85.333333C57.105067 0 34.133333 22.971733 34.133333 51.2v819.2c0 28.228267 22.971733 51.2 51.2 51.2h429.704534a17.066667 17.066667 0 0 0 15.803733-23.517867A253.610667 253.610667 0 0 1 512 802.133333z m256-221.866666c-122.333867 0-221.866667 99.5328-221.866667 221.866666s99.5328 221.866667 221.866667 221.866667 221.866667-99.5328 221.866667-221.866667-99.5328-221.866667-221.866667-221.866666z m68.266667 238.933333H785.066667v51.2a17.066667 17.066667 0 0 1-34.133334 0V819.2h-51.2a17.066667 17.066667 0 0 1 0-34.133333H750.933333v-51.2a17.066667 17.066667 0 0 1 34.133334 0V785.066667h51.2a17.066667 17.066667 0 0 1 0 34.133333z" p-id="2670"></path></svg>