<?xml version="1.0" standalone="no"?><!DOCTYPE svg PUBLIC "-//W3C//DTD SVG 1.1//EN" "http://www.w3.org/Graphics/SVG/1.1/DTD/svg11.dtd"><svg t="1581666278902" class="icon" viewBox="0 0 1024 1024" version="1.1" xmlns="http://www.w3.org/2000/svg" p-id="7016" xmlns:xlink="http://www.w3.org/1999/xlink" width="200" height="200"><defs><style type="text/css"></style></defs><path d="M426.666606 486.40009h307.199948v68.266655h-307.199948zM426.666606 605.866736h307.199948v68.266656h-307.199948zM295.253294 486.40009h68.266655v324.266612h-68.266655zM426.666606 742.400047h307.199948v68.266655h-307.199948z" p-id="7017"></path><path d="M957.712917 253.730262L692.394561 6.127103A23.227729 23.227729 0 0 0 676.573764 0.000171H168.550382C108.543992 0.000171 59.733333 45.568163 59.733333 101.563887V922.45335C59.733333 978.432008 108.543992 1024 168.550382 1024h686.899085C915.455857 1024 964.266516 978.432008 964.266516 922.436284V268.509993c0-5.546666-2.3552-10.854398-6.553599-14.779731zM698.982293 71.338825L887.807862 247.603329h-124.808513a65.996789 65.996789 0 0 1-45.294925-17.49333c-12.083198-11.298131-18.756264-26.299729-18.739197-42.274126V71.355892z m93.559452 758.954541a36.232527 36.232527 0 0 1-36.044794 36.334927H272.588765a36.232527 36.232527 0 0 1-36.044794-36.334927V459.247027c0-20.036263 16.162131-36.334927 36.044794-36.334927h483.908186c19.865597 0 36.044794 16.298664 36.044794 36.334927V830.293366z" p-id="7018"></path></svg>