<?xml version="1.0" standalone="no"?><!DOCTYPE svg PUBLIC "-//W3C//DTD SVG 1.1//EN" "http://www.w3.org/Graphics/SVG/1.1/DTD/svg11.dtd"><svg t="1581666039617" class="icon" viewBox="0 0 1024 1024" version="1.1" xmlns="http://www.w3.org/2000/svg" p-id="5493" xmlns:xlink="http://www.w3.org/1999/xlink" width="200" height="200"><defs><style type="text/css"></style></defs><path d="M796.16 570.453333a162.986667 162.986667 0 1 0 162.986667 162.986667 162.986667 162.986667 0 0 0-162.986667-162.986667z m0 266.666667a103.68 103.68 0 1 1 103.68-103.68 103.68 103.68 0 0 1-103.68 103.68z" fill="" p-id="5494"></path><path d="M796.16 733.44m-52.906667 0a52.906667 52.906667 0 1 0 105.813334 0 52.906667 52.906667 0 1 0-105.813334 0Z" fill="" p-id="5495"></path><path d="M748.8 512l94.72 0 0 112.64-94.72 0 0-112.64Z" fill="" p-id="5496"></path><path d="M969.435312 580.284555l43.502036 84.139475-100.057753 51.732152-43.502037-84.139475 100.057754-51.732152Z" fill="" p-id="5497"></path><path d="M748.8 843.946667l94.72 0 0 112.64-94.72 0 0-112.64Z" fill="" p-id="5498"></path><path d="M679.058227 749.200067l43.502037 84.139474-100.057754 51.732152-43.502037-84.139474 100.057754-51.732152Z" fill="" p-id="5499"></path><path d="M720.603693 638.49104l-50.59988 80.072033-95.220796-60.17283 50.59988-80.072034 95.220796 60.172831Z" fill="" p-id="5500"></path><path d="M1013.996728 804.805025l-50.59988 80.072034-95.220797-60.172831 50.59988-80.072033 95.220797 60.17283Z" fill="" p-id="5501"></path><path d="M214.186667 285.013333l335.786666 0 0 74.666667-335.786666 0 0-74.666667Z" fill="" p-id="5502"></path><path d="M214.186667 471.893333l335.786666 0 0 74.666667-335.786666 0 0-74.666667Z" fill="" p-id="5503"></path><path d="M214.186667 658.346667l335.786666 0 0 74.666666-335.786666 0 0-74.666666Z" fill="" p-id="5504"></path><path d="M218.88 881.92a116.48 116.48 0 0 1-116.48-116.48v-512a116.48 116.48 0 0 1 116.48-117.333333H657.066667a116.48 116.48 0 0 1 116.48 116.48v219.306666h74.666666V252.586667a191.573333 191.573333 0 0 0-191.146666-191.146667H218.88A191.573333 191.573333 0 0 0 27.733333 252.586667v512a191.573333 191.573333 0 0 0 191.146667 191.146666H512v-73.813333z" fill="" p-id="5505"></path></svg>