<?xml version="1.0" standalone="no"?><!DOCTYPE svg PUBLIC "-//W3C//DTD SVG 1.1//EN" "http://www.w3.org/Graphics/SVG/1.1/DTD/svg11.dtd"><svg t="1581666079320" class="icon" viewBox="0 0 1024 1024" version="1.1" xmlns="http://www.w3.org/2000/svg" p-id="6291" xmlns:xlink="http://www.w3.org/1999/xlink" width="200" height="200"><defs><style type="text/css"></style></defs><path d="M955.739429 204.8v750.921143a68.461714 68.461714 0 0 1-68.242286 68.278857h-750.957714a68.461714 68.461714 0 0 1-68.278858-68.242286v-887.478857a68.461714 68.461714 0 0 1 68.242286-68.278857h614.4z" fill="#F5696F" p-id="6292"></path><path d="M955.739429 204.8h-136.521143a68.278857 68.278857 0 0 1-68.278857-68.278857V0z" fill="#FFAAAD" p-id="6293"></path><path d="M317.933714 802.121143h-0.182857a31.561143 31.561143 0 0 1-6.436571-0.658286 25.819429 25.819429 0 0 1-20.150857-18.980571c-4.827429-16.676571 6.473143-39.387429 31.853714-63.341715a245.76 245.76 0 0 1 86.016-47.542857 630.345143 630.345143 0 0 0 55.478857-167.241143 380.342857 380.342857 0 0 1-33.938286-123.684571c1.755429 39.68 0.402286 2.706286 18.285715-14.262857a29.037714 29.037714 0 0 1 32.256-5.266286 53.942857 53.942857 0 0 1 28.672 50.578286 558.555429 558.555429 0 0 1-9.874286 87.771428 446.976 446.976 0 0 0 106.276571 136.923429 271.396571 271.396571 0 0 1 98.121143 8.886857c25.6 9.947429 29.586286 25.124571 29.586286 33.316572 0 16.859429-16.237714 33.901714-52.516572 33.901714a159.232 159.232 0 0 1-87.003428-41.289143 690.102857 690.102857 0 0 0-161.828572 28.196571 301.933714 301.933714 0 0 1-89.344 97.462858c30.317714-18.029714-1.682286 5.229714-25.270857 5.229714z m54.857143-77.385143a146.029714 146.029714 0 0 0-51.2 48.786286c16.420571-21.650286 10.971429-15.030857 7.68-9.874286a173.750857 173.750857 0 0 0 43.556572-38.912z m282.258286-54.345143a58.221714 58.221714 0 0 0 37.558857 6.985143 126.866286 126.866286 0 0 0-37.595429-6.985143z m-165.997714-120.137143a660.443429 660.443429 0 0 1-35.803429 107.885715 713.728 713.728 0 0 1 165.961143-21.723429 307.602286 307.602286 0 0 1-184.649143-209.005714z m-18.102858-154.550857a94.098286 94.098286 0 0 0 3.657143 36.352 281.6 281.6 0 0 0 0.914286-20.48 27.026286 27.026286 0 0 0-4.571429-15.908571z" fill="#FFFFFF" p-id="6294"></path></svg>