<?xml version="1.0" standalone="no"?><!DOCTYPE svg PUBLIC "-//W3C//DTD SVG 1.1//EN" "http://www.w3.org/Graphics/SVG/1.1/DTD/svg11.dtd"><svg t="1581666017658" class="icon" viewBox="0 0 1024 1024" version="1.1" xmlns="http://www.w3.org/2000/svg" p-id="5017" xmlns:xlink="http://www.w3.org/1999/xlink" width="200" height="200"><defs><style type="text/css"></style></defs><path d="M298.667 256V128a42.667 42.667 0 0 1 42.666-42.667h512A42.667 42.667 0 0 1 896 128v597.333A42.667 42.667 0 0 1 853.333 768h-128v128c0 23.552-19.2 42.667-42.965 42.667H170.965A42.71 42.71 0 0 1 128 896l0.128-597.333c0-23.552 19.2-42.667 42.923-42.667h127.616z m-85.248 85.333l-0.086 512H640v-512H213.419zM384 256h341.333v426.667h85.334v-512H384V256z m-85.333 213.333h256v85.334h-256v-85.334z m0 170.667h256v85.333h-256V640z" p-id="5018"></path></svg>