<?xml version="1.0" standalone="no"?><!DOCTYPE svg PUBLIC "-//W3C//DTD SVG 1.1//EN" "http://www.w3.org/Graphics/SVG/1.1/DTD/svg11.dtd"><svg t="1581665733760" class="icon" viewBox="0 0 1024 1024" version="1.1" xmlns="http://www.w3.org/2000/svg" p-id="3737" xmlns:xlink="http://www.w3.org/1999/xlink" width="200" height="200"><defs><style type="text/css"></style></defs><path d="M235.835602 320.418786h360.276102c25.815059 0 46.807525-21.134307 46.807525-46.807526s-20.992466-46.807525-46.807525-46.807525h-360.276102c-25.673218 0-46.807525 21.134307-46.807525 46.807525 0 25.815059 20.992466 46.807525 46.807525 46.807526zM235.835602 526.230055h358.857692c25.815059 0 46.807525-21.134307 46.807525-46.807525s-20.992466-46.807525-46.807525-46.807525h-358.857692c-25.673218 0-46.807525 20.992466-46.807525 46.807525 0 25.673218 20.992466 46.807525 46.807525 46.807525zM235.835602 731.899483h202.832609c25.815059 0 46.807525-21.134307 46.807525-46.807525 0-25.815059-20.992466-46.807525-46.807525-46.807525h-202.832609c-25.673218 0-46.807525 20.992466-46.807525 46.807525 0 25.673218 20.992466 46.807525 46.807525 46.807525z" p-id="3738"></path><path d="M419.235996 921.966404h-290.77402v-828.351354h687.503255v235.456036c0 25.815059 20.992466 46.807525 46.807525 46.807525s46.807525-20.992466 46.807525-46.807525v-239.711265c0-49.360663-39.999158-89.359821-89.35982-89.359821H124.348588c-49.360663 0-89.359821 39.999158-89.359821 89.359821v836.861812c0 49.360663 39.999158 89.359821 89.359821 89.359821h295.029249c25.815059 0 46.807525-20.992466 46.807525-46.807525-0.141841-25.9569-20.992466-46.807525-46.949366-46.807525z" p-id="3739"></path><path d="M580.509196 876.719129l96.45187 69.785765c1.276569 0.992887 3.120502 0.567364 3.971547-0.709205L923.197016 602.398664c0.851046-1.276569 0.567364-3.120502-0.709205-3.971548L825.043054 531.478171c-1.276569-0.851046-2.978661-0.567364-3.971547 0.709205l-241.129675 340.560206c-0.851046 1.276569-0.567364 3.120502 0.567364 3.971547z m-30.495812 146.663579l106.664421-54.75062c1.843933-0.992887 2.127615-3.546025 0.425523-4.822594l-87.657729-64.253966c-1.702092-1.276569-4.113389-0.283682-4.397071 1.702092L541.786607 1017.141705c-0.851046 4.680753 3.971548 8.368618 8.226777 6.241003z m421.693249-534.031309s-25.105854-22.97824-54.608779-38.580748c-29.502925-13.900417-46.523843 7.801254-46.523843 7.801254l-35.602088 50.35355c-0.851046 1.276569-0.567364 3.120502 0.709205 3.971547l99.572372 69.785765c1.276569 0.851046 2.978661 0.567364 3.829706-0.567364 6.524685-8.6523 27.800833-41.984932 37.162338-54.041415 12.623848-15.460667-4.538912-38.722589-4.538911-38.722589z" fill="#B74F51" p-id="3740"></path></svg>