<?xml version="1.0" standalone="no"?><!DOCTYPE svg PUBLIC "-//W3C//DTD SVG 1.1//EN" "http://www.w3.org/Graphics/SVG/1.1/DTD/svg11.dtd"><svg t="1581665789790" class="icon" viewBox="0 0 1024 1024" version="1.1" xmlns="http://www.w3.org/2000/svg" p-id="4176" xmlns:xlink="http://www.w3.org/1999/xlink" width="200" height="200"><defs><style type="text/css"></style></defs><path d="M321.6 346.5h381c21.4 0 39-17.5 39-39 0-21.4-17.5-39-39-39h-381c-21.4 0-39 17.5-39 39 0 21.4 17.5 39 39 39zM282.6 488.5c0 21.4 17.5 39 39 39h381c21.4 0 39-17.5 39-39 0-21.4-17.5-39-39-39h-381c-21.5 0-39 17.5-39 39zM873.1 677.2c-17.6-17.6-46.1-17.6-63.6 0L746.6 740l-62.8-62.8c-17.5-17.5-46.1-17.5-63.6 0s-17.5 46.1 0 63.6l62.8 62.8-62.8 62.8c-17.6 17.6-17.6 46.1 0 63.6 17.6 17.6 46.1 17.6 63.6 0l62.8-62.8 62.8 62.8c17.5 17.5 46.1 17.5 63.6 0s17.5-46.1 0-63.6l-62.8-62.8 62.8-62.8c17.6-17.5 17.6-46 0.1-63.6z" p-id="4177"></path><path d="M908.5 113.9c0-27.6-22.4-50-50-50H166.8c-27.6 0-50 22.4-50 50v794.7c0 27.6 22.4 50 50 50h307.3c20.8-0.3 37.5-17.2 37.5-38s-16.7-37.7-37.5-38H192.8V139.9h639.7v418.8c0 21 17 38 38 38s38-17 38-38V113.9z" p-id="4178"></path></svg>