<?xml version="1.0" standalone="no"?><!DOCTYPE svg PUBLIC "-//W3C//DTD SVG 1.1//EN" "http://www.w3.org/Graphics/SVG/1.1/DTD/svg11.dtd"><svg t="1581665811918" class="icon" viewBox="0 0 1024 1024" version="1.1" xmlns="http://www.w3.org/2000/svg" p-id="4939" xmlns:xlink="http://www.w3.org/1999/xlink" width="200" height="200"><defs><style type="text/css"></style></defs><path d="M814.592 368.64h-13.312V271.872C801.28 116.736 676.864 0 510.976 0 346.624 0 223.232 116.736 223.232 271.872V368.64H209.92c-85.504 0-155.136 64-155.136 143.36v368.64c0 78.848 69.12 143.36 155.136 143.36h605.184c85.504 0 155.136-64 155.136-143.36v-368.64c-0.512-79.36-70.144-143.36-155.648-143.36zM330.752 271.36c0-98.304 75.776-169.984 179.712-169.984 105.984 0 182.272 71.168 182.272 169.984v96.768H330.752V271.36z m530.944 609.28c0 22.528-20.992 41.472-47.104 41.472H209.408c-26.112 0-47.104-18.432-47.104-41.472v-368.64c0-22.528 20.992-41.472 47.104-41.472H814.08c26.112 0 47.104 18.432 47.104 41.472l0.512 368.64z" p-id="4940"></path><path d="M592.384 634.368c0 25.088-11.264 48.64-30.208 63.488v89.6c0 28.16-22.528 51.2-50.176 51.2-28.672-0.512-51.2-23.552-50.688-51.712v-89.6c-18.944-15.36-30.208-38.912-30.208-63.488 0-45.568 36.352-81.92 80.384-81.92s80.896 37.888 80.896 82.432z" p-id="4941"></path></svg>