<?xml version="1.0" standalone="no"?><!DOCTYPE svg PUBLIC "-//W3C//DTD SVG 1.1//EN" "http://www.w3.org/Graphics/SVG/1.1/DTD/svg11.dtd"><svg t="1581665981097" class="icon" viewBox="0 0 1024 1024" version="1.1" xmlns="http://www.w3.org/2000/svg" p-id="3835" xmlns:xlink="http://www.w3.org/1999/xlink" width="200" height="200"><defs><style type="text/css"></style></defs><path d="M163.84 619.52l-57.6 219.477333a38.4 38.4 0 0 0 8.96 35.84c6.912 6.570667 16.042667 10.24 25.6 10.24h14.762667L355.84 832h6.4L913.92 256c18.602667-19.968 27.562667-47.104 24.32-74.24a112.64 112.64 0 0 0-32-78.08l-52.48-50.602667A106.24 106.24 0 0 0 778.837333 20.48a89.002667 89.002667 0 0 0-64 26.197333l-550.4 571.562667-0.597333 1.28z m694.357333-424.362667l-54.357333 56.32-89.002667-93.44L768 101.12a25.6 25.6 0 0 1 34.56 0l53.162667 53.76a30.72 30.72 0 0 1 8.277333 20.48 22.357333 22.357333 0 0 1-5.802667 16.042667v3.84zM188.16 796.16l28.757333-109.482667 76.8 81.322667-105.557333 28.16z m750.677333 205.482667h-832a35.157333 35.157333 0 0 1-35.157333-35.242667 34.56 34.56 0 0 1 35.157333-35.157333h832a35.157333 35.157333 0 1 1 0 70.4z" fill="#68A7F0" p-id="3836"></path></svg>