<?xml version="1.0" standalone="no"?><!DOCTYPE svg PUBLIC "-//W3C//DTD SVG 1.1//EN" "http://www.w3.org/Graphics/SVG/1.1/DTD/svg11.dtd"><svg t="1581666252648" class="icon" viewBox="0 0 1024 1024" version="1.1" xmlns="http://www.w3.org/2000/svg" p-id="6254" xmlns:xlink="http://www.w3.org/1999/xlink" width="200" height="200"><defs><style type="text/css"></style></defs><path d="M792 72H232c-88.2 0-160 71.8-160 160v560c0 88.2 71.8 160 160 160h560c88.2 0 160-71.8 160-160 0-22.1-17.9-40-40-40v-94.3c24.9-28.2 40-65.2 40-105.7v-320c0-88.2-71.8-160-160-160z m0 800H232c-44.1 0-80-35.9-80-80s35.9-80 80-80h560c13.8 0 27.2-1.8 40-5.1v154.3c-11.8 6.9-25.4 10.8-40 10.8z m80-359.5v39.5c0 44.1-35.9 80-80 80H232c-29.1 0-56.5 7.8-80 21.5V232c0-44.1 35.9-80 80-80h560c44.1 0 80 35.9 80 80v280.5z" p-id="6255"></path><path d="M652 232l-200 120v-120h-79v320h79v-120l200 120v-80l-133.3-80 133.3-80z" p-id="6256"></path></svg>