<?xml version="1.0" standalone="no"?><!DOCTYPE svg PUBLIC "-//W3C//DTD SVG 1.1//EN" "http://www.w3.org/Graphics/SVG/1.1/DTD/svg11.dtd"><svg t="1581487483717" class="icon" viewBox="0 0 1024 1024" version="1.1" xmlns="http://www.w3.org/2000/svg" p-id="3221" xmlns:xlink="http://www.w3.org/1999/xlink" width="200" height="200"><defs><style type="text/css"></style></defs><path d="M712.96 601.173333a21.418667 21.418667 0 0 0-5.973333 18.986667l36.693333 213.973333a20.352 20.352 0 0 1-29.653333 21.333334l-192.213334-100.906667a20.096 20.096 0 0 0-19.626666 0l-192.213334 100.906667a20.352 20.352 0 0 1-29.653333-21.333334l36.693333-213.973333a21.418667 21.418667 0 0 0-5.973333-18.986667l-155.52-151.466666a19.690667 19.690667 0 0 1-5.12-20.906667 20.096 20.096 0 0 1 16.426667-13.866667l214.826666-31.146666a21.205333 21.205333 0 0 0 16-11.733334l96.213334-194.56a20.757333 20.757333 0 0 1 36.266666 0l96.213334 194.56a21.205333 21.205333 0 0 0 16 11.733334l214.826666 31.146666a20.096 20.096 0 0 1 16.426667 13.866667 19.690667 19.690667 0 0 1-5.12 20.906667z" fill="#42A5F5" p-id="3222"></path><path d="M914.133333 415.573333a62.997333 62.997333 0 0 0-50.773333-42.88l-203.733333-29.44-91.093334-184.746666a63.168 63.168 0 0 0-113.066666 0l-91.093334 184.746666-203.733333 29.44a63.146667 63.146667 0 0 0-34.986667 107.52l147.413334 143.786667-34.773334 202.88a63.018667 63.018667 0 0 0 91.52 66.346667L512 797.44l182.186667 95.786667a63.018667 63.018667 0 0 0 91.52-66.346667l-34.773334-202.88 147.413334-143.786667a62.634667 62.634667 0 0 0 15.786666-64.64z m-45.653333 34.133334l-155.52 151.466666a21.418667 21.418667 0 0 0-5.973333 18.986667l36.693333 213.973333a20.352 20.352 0 0 1-29.653333 21.333334l-192.213334-100.906667a20.096 20.096 0 0 0-19.626666 0l-192.213334 100.906667a20.352 20.352 0 0 1-29.653333-21.333334l36.693333-213.973333a21.418667 21.418667 0 0 0-5.973333-18.986667l-155.52-151.466666a19.690667 19.690667 0 0 1-5.12-20.906667 20.096 20.096 0 0 1 16.426667-13.866667l214.826666-31.146666a21.205333 21.205333 0 0 0 16-11.733334l96.213334-194.56a20.757333 20.757333 0 0 1 36.266666 0l96.213334 194.56a21.205333 21.205333 0 0 0 16 11.733334l214.826666 31.146666a20.096 20.096 0 0 1 16.426667 13.866667 19.690667 19.690667 0 0 1-5.12 20.906667z" fill="#1976D2" p-id="3223"></path></svg>