<?xml version="1.0" standalone="no"?><!DOCTYPE svg PUBLIC "-//W3C//DTD SVG 1.1//EN" "http://www.w3.org/Graphics/SVG/1.1/DTD/svg11.dtd"><svg t="1581900561855" class="icon" viewBox="0 0 1024 1024" version="1.1" xmlns="http://www.w3.org/2000/svg" p-id="3482" xmlns:xlink="http://www.w3.org/1999/xlink" width="200" height="200"><defs><style type="text/css"></style></defs><path d="M535.40586667-0.85333333L142.70933333 123.9776c-13.00266667 5.20106667-23.4048 18.20373333-23.4048 33.808l2.60053334 491.52v5.20106667c0 2.60053333 15.6032 85.8208 96.224 163.84 62.41493333 59.8144 213.2512 140.43413333 278.26666666 174.24213333 10.4032 5.20213333 18.2048 10.4032 20.80533334 13.00266667l7.8016 5.20213333c5.20213333 2.60053333 10.4032 2.60053333 15.60426666 0l10.40213334-5.20106666c39.01013333-18.2048 228.85653333-114.42773333 301.67466666-184.64533334 80.61866667-78.0192 96.22293333-161.23946667 96.22293334-163.84l5.20106666-499.3216c0-15.60426667-10.40213333-28.608-23.40586666-33.808L535.40586667-0.85333333z m351.08586666 644.95786667c-2.60053333 13.00266667-20.80533333 70.21653333-78.0192 130.03093333-57.21386667 57.21386667-210.65173333 135.23306667-265.26506666 163.84-5.20106667 2.60053333-10.40213333 2.60053333-15.6032 0-57.21493333-28.60693333-208.0512-109.22666667-262.66453334-163.84-59.8144-57.21386667-75.41866667-117.02826667-78.0192-130.03093333L184.32 188.992c0-7.8016 5.20106667-13.00266667 10.40213333-15.60426666L527.60533333 66.76266667c7.8016-2.60053333 15.6032-2.60053333 20.80426667 0l332.88213333 106.62613333c7.8016 2.60053333 10.40213333 7.80266667 10.40213334 15.60426667l-5.20106667 455.11146667zM543.20746667 235.8048c39.01013333 0 75.41866667 15.6032 101.42506666 41.61066667s41.61066667 62.41386667 41.61066667 101.424-15.60533333 75.41866667-41.61066667 101.42506667c-18.2048 18.20373333-41.61066667 31.20746667-67.616 36.40853333v59.8144h59.8144c10.40213333 0 18.20373333 2.60053333 26.00533334 10.4032 7.80266667 7.8016 10.4032 15.6032 10.4032 26.00533333s-5.20106667 18.2048-10.40213334 26.0064c-7.80266667 7.80266667-15.60426667 10.4032-26.0064 10.4032h-59.81546666v98.82346667c0 10.4032-5.20106667 18.2048-10.40213334 26.0064-7.8016 7.80266667-15.60426667 10.4032-26.0064 10.4032s-18.2048-2.60053333-26.00533333-10.4032c-7.80266667-7.8016-10.4032-15.6032-10.4032-26.00533333V516.672c-26.0064-5.20106667-46.81173333-18.2048-65.01653333-36.40853333-26.00533333-26.0064-41.61066667-62.416-41.61066667-101.42506667s15.60533333-75.41866667 41.61066667-101.42506666c28.608-26.00533333 65.01653333-41.61066667 104.0256-41.61066667z m85.8208 140.43413334c0-23.40586667-7.8016-44.2112-26.00533334-59.8144-33.80906667-33.80906667-85.82186667-33.80906667-119.62986666 0-15.60426667 15.6032-26.0064 36.40853333-26.0064 59.8144 0 23.40586667 7.8016 44.21013333 26.0064 59.8144 15.60426667 15.60426667 36.40853333 23.40586667 59.8144 23.40586666 46.81173333 2.60053333 85.8208-36.40853333 85.8208-83.22133333z m0 0" fill="#d81e06" p-id="3483"></path></svg>