<?xml version="1.0" standalone="no"?><!DOCTYPE svg PUBLIC "-//W3C//DTD SVG 1.1//EN" "http://www.w3.org/Graphics/SVG/1.1/DTD/svg11.dtd"><svg t="1581483973615" class="icon" viewBox="0 0 1024 1024" version="1.1" xmlns="http://www.w3.org/2000/svg" p-id="4046" xmlns:xlink="http://www.w3.org/1999/xlink" width="200" height="200"><defs><style type="text/css"></style></defs><path d="M958.037333 464.042667L784.042667 247.637333a45.226667 45.226667 0 0 0-72.277334 0l-174.08 216.405334c-11.946667 17.834667 0 41.898667 17.92 41.898666h66.048c0 126.293333 0 288.256-228.522666 420.352-5.717333 5.802667 0 12.032 5.802666 12.032 426.581333-66.048 462.762667-354.304 462.762667-432.384h72.277333c24.064 0 36.181333-23.552 24.064-41.898666z m-546.56 54.016h-72.277333c0-126.293333 0-288.256 228.437333-420.352 5.802667-5.802667 0-12.032-5.802666-12.032-426.496 66.048-462.677333 354.304-462.677334 432.384H26.88c-24.149333 0-36.181333 24.064-17.92 41.898666l174.08 216.405334a45.226667 45.226667 0 0 0 72.277333 0l173.994667-216.405334c12.032-17.834667 0-41.898667-17.834667-41.898666z" p-id="4047"></path></svg>