<?xml version="1.0" standalone="no"?><!DOCTYPE svg PUBLIC "-//W3C//DTD SVG 1.1//EN" "http://www.w3.org/Graphics/SVG/1.1/DTD/svg11.dtd"><svg t="1581483923386" class="icon" viewBox="0 0 1024 1024" version="1.1" xmlns="http://www.w3.org/2000/svg" p-id="1904" xmlns:xlink="http://www.w3.org/1999/xlink" width="200" height="200"><defs><style type="text/css"></style></defs><path d="M474.347 390.912v-137.6c0-20.992-24-37.376-41.408-25.088-118.72 85.056-237.888 169.984-356.736 254.976-7.93 5.604-13.046 14.735-13.046 25.060 0 10.243 5.034 19.309 12.762 24.862 118.875 84.99 237.339 169.854 356.059 254.91 8.832 6.272 17.344 6.016 24.192 2.112 9.984-3.52 18.176-13.056 18.176-28.8v-150.464c181.76-102.272 443.84 182.4 443.84 182.4-137.088-384.384-315.2-378.432-443.84-402.432z" p-id="1905"></path></svg>