<?xml version="1.0" standalone="no"?><!DOCTYPE svg PUBLIC "-//W3C//DTD SVG 1.1//EN" "http://www.w3.org/Graphics/SVG/1.1/DTD/svg11.dtd"><svg t="1581483935761" class="icon" viewBox="0 0 1024 1024" version="1.1" xmlns="http://www.w3.org/2000/svg" p-id="2642" xmlns:xlink="http://www.w3.org/1999/xlink" width="200" height="200"><defs><style type="text/css"></style></defs><path d="M170.683307 512c0 5.674667 2.218667 11.050667 6.229333 15.104L469.349973 819.498667V204.501333l-292.437333 292.437334A21.205333 21.205333 0 0 0 170.683307 512z" p-id="2643"></path><path d="M146.747307 557.269333C134.67264 545.152 128.01664 529.109333 128.01664 512s6.656-33.152 18.730667-45.269333L469.349973 144.170667V85.333333a21.333333 21.333333 0 0 0-36.437333-15.104l-426.666667 426.666667a21.333333 21.333333 0 0 0 0 30.165333l426.666667 426.666667A21.333333 21.333333 0 0 0 469.349973 938.666667v-58.837334l-322.602666-322.56z" p-id="2644"></path><path d="M640.01664 363.136V85.333333a21.333333 21.333333 0 0 0-36.437333-15.104l-426.666667 426.666667a21.333333 21.333333 0 0 0 0 30.165333l426.666667 426.666667A21.333333 21.333333 0 0 0 640.01664 938.666667v-275.84c69.376 6.741333 284.757333 43.392 342.229333 239.146666a21.034667 21.034667 0 0 0 23.509334 15.104A21.248 21.248 0 0 0 1024.01664 896c0-475.861333-302.634667-527.573333-384-532.864z" p-id="2645"></path></svg>