<?xml version="1.0" standalone="no"?><!DOCTYPE svg PUBLIC "-//W3C//DTD SVG 1.1//EN" "http://www.w3.org/Graphics/SVG/1.1/DTD/svg11.dtd"><svg t="1581484050763" class="icon" viewBox="0 0 1024 1024" version="1.1" xmlns="http://www.w3.org/2000/svg" p-id="5446" xmlns:xlink="http://www.w3.org/1999/xlink" width="200" height="200"><defs><style type="text/css"></style></defs><path d="M307.21408 341.056V256.128C204.36608 333.76 114.25408 411.648 11.40608 489.28a28.928 28.928 0 0 0-0.192 45.888c103.04 77.76 192.896 155.136 296 232.96v-85.056c-65.408-49.408-117.888-98.496-183.36-147.904a28.928 28.928 0 0 1 0.192-45.888c65.28-49.28 117.76-98.944 183.168-148.224z m307.2-59.328c0-18.816-34.688-32.896-51.328-21.76-113.728 76.352-231.936 152.768-345.728 229.12a26.56 26.56 0 0 0-0.256 44.992c113.856 76.416 231.36 152.704 345.088 229.12 8.448 5.632 19.968 8.384 26.624 4.864 9.536-3.072 25.6-11.328 25.6-25.536v-128c174.08-91.968 409.6 153.6 409.6 153.6-131.264-345.6-286.4-336.768-409.6-358.4v-128z" p-id="5447"></path></svg>