<?xml version="1.0" standalone="no"?><!DOCTYPE svg PUBLIC "-//W3C//DTD SVG 1.1//EN" "http://www.w3.org/Graphics/SVG/1.1/DTD/svg11.dtd"><svg t="1581487619926" class="icon" viewBox="0 0 1024 1024" version="1.1" xmlns="http://www.w3.org/2000/svg" p-id="9458" xmlns:xlink="http://www.w3.org/1999/xlink" width="200" height="200"><defs><style type="text/css"></style></defs><path d="M548.571429 875.885714V950.857143h109.714285a36.571429 36.571429 0 0 1 0 73.142857H365.714286a36.571429 36.571429 0 0 1 0-73.142857h109.714285v-74.971429c-184.795429-18.358857-329.142857-174.262857-329.142857-363.885714a36.571429 36.571429 0 0 1 73.142857 0 292.571429 292.571429 0 0 0 585.142858 0 36.571429 36.571429 0 0 1 73.142857 0c0 189.622857-144.347429 345.526857-329.142857 363.885714zM512 731.428571a219.428571 219.428571 0 0 1-219.428571-219.428571V219.428571a219.428571 219.428571 0 1 1 438.857142 0v292.571429a219.428571 219.428571 0 0 1-219.428571 219.428571z" fill="#1296db" p-id="9459"></path></svg>